<svg xmlns="http://www.w3.org/2000/svg" viewBox="0 0 512 512"><defs><linearGradient id="g" x1="0" y1="0" x2="1" y2="1"><stop stop-color="#1a2024"/><stop offset="1" stop-color="#070a0c"/></linearGradient></defs><rect width="512" height="512" rx="112" fill="url(#g)"/><path d="M256 45 424 103v132c0 109-68 185-168 232C156 420 88 344 88 235V103z" fill="#080b0d" stroke="#d6a62b" stroke-width="18"/><path d="M146 310V214h42v-42h40v42h56v-66h42v66h40v96h-66v-66h-38v66z" fill="#d6a62b"/><path d="M205 244h102v66H205z" fill="#101519"/><path d="M236 270h40v40h-40z" fill="#d6a62b"/><path d="M142 214h46v-38h38v38h58v-60h42v60h44v-22h-44v-60h-42v60h-58v-38h-38v38h-46z" fill="#d6a62b"/></svg>
